<svg width="1434" height="101" viewBox="0 0 1434 101" fill="none" xmlns="http://www.w3.org/2000/svg">
<path d="M50.1728 99H9.40616V1.7666H49.7685C67.4228 1.7666 78.8105 11.2676 78.8105 26.0244C78.8105 36.4688 71.0614 45.5654 61.0888 47.1826V47.7217C74.2958 49.002 83.5273 58.5029 83.5273 71.373C83.5273 88.4883 70.9267 99 50.1728 99ZM26.7909 15.3105V42.7354H42.6933C54.8222 42.7354 61.6278 37.6143 61.6278 28.585C61.6278 20.0947 55.7655 15.3105 45.3886 15.3105H26.7909ZM26.7909 85.4561H46.1972C58.9999 85.4561 65.8056 80.1328 65.8056 70.1602C65.8056 60.2549 58.7978 55.0664 45.456 55.0664H26.7909V85.4561ZM111.93 1.7666V63.1523C111.93 76.4268 120.084 85.4561 134.504 85.4561C148.924 85.4561 157.144 76.4268 157.144 63.1523V1.7666H174.462V64.7021C174.462 85.9277 159.166 100.617 134.504 100.617C109.909 100.617 94.5457 85.9277 94.5457 64.7021V1.7666H111.93ZM235.007 99H217.689V60.6592L183.593 1.7666H202.663L226.247 44.083H226.651L250.168 1.7666H269.102L235.007 60.6592V99ZM295.551 1.7666V63.1523C295.551 76.4268 303.705 85.4561 318.125 85.4561C332.544 85.4561 340.765 76.4268 340.765 63.1523V1.7666H358.083V64.7021C358.083 85.9277 342.787 100.617 318.125 100.617C293.53 100.617 278.167 85.9277 278.167 64.7021V1.7666H295.551ZM391.337 15.8496V49.0693H410.946C421.997 49.0693 428.398 42.9375 428.398 32.4258C428.398 22.1836 421.592 15.8496 410.609 15.8496H391.337ZM391.337 62.4111V99H373.953V1.7666H412.563C433.586 1.7666 446.187 13.4238 446.187 32.0215C446.187 44.8916 439.449 55.6055 427.859 59.7832L449.084 99H429.274L410.137 62.4111H391.337ZM454.847 71.6426H471.693C472.771 80.6045 481.733 86.4668 493.592 86.4668C505.317 86.4668 513.47 80.6719 513.47 72.5859C513.47 65.5781 508.484 61.5352 496.22 58.6377L483.619 55.6729C465.696 51.5625 457.205 42.9375 457.205 29.0566C457.205 11.8066 472.232 0.149414 493.39 0.149414C514.818 0.149414 528.968 11.7393 529.372 28.8545H512.796C511.988 19.7578 504.373 14.2998 493.255 14.2998C482.272 14.2998 474.86 19.6904 474.86 27.7764C474.86 34.2451 479.779 38.0186 491.705 40.8486L502.891 43.4092C522.634 47.9238 530.99 56.0771 530.99 70.5645C530.99 89.0273 516.165 100.617 492.649 100.617C470.278 100.617 455.588 89.5664 454.847 71.6426ZM560.134 99H542.749V1.7666H560.134V99ZM592.648 99H575.869V1.7666H590.963L639.209 69.8906H639.816V1.7666H656.526V99H641.568L593.254 30.8086H592.648V99Z" fill="#758AC5"/>
<path d="M690.506 71.6426H707.352C708.43 80.6045 717.392 86.4668 729.251 86.4668C740.976 86.4668 749.129 80.6719 749.129 72.5859C749.129 65.5781 744.143 61.5352 731.879 58.6377L719.279 55.6729C701.355 51.5625 692.865 42.9375 692.865 29.0566C692.865 11.8066 707.891 0.149414 729.049 0.149414C750.477 0.149414 764.627 11.7393 765.032 28.8545H748.456C747.647 19.7578 740.033 14.2998 728.915 14.2998C717.931 14.2998 710.519 19.6904 710.519 27.7764C710.519 34.2451 715.438 38.0186 727.365 40.8486L738.55 43.4092C758.293 47.9238 766.649 56.0771 766.649 70.5645C766.649 89.0273 751.825 100.617 728.308 100.617C705.937 100.617 691.248 89.5664 690.506 71.6426ZM821.264 0.149414C849.565 0.149414 867.354 19.4883 867.354 50.417C867.354 81.3457 849.565 100.617 821.264 100.617C792.896 100.617 775.107 81.3457 775.107 50.417C775.107 19.4883 792.896 0.149414 821.264 0.149414ZM821.264 14.9736C803.879 14.9736 792.896 28.7197 792.896 50.417C792.896 72.0469 803.879 85.793 821.264 85.793C838.581 85.793 849.632 72.0469 849.632 50.417C849.632 28.7197 838.581 14.9736 821.264 14.9736ZM941.375 84.3105V99H879.855V1.7666H897.239V84.3105H941.375ZM966.207 1.7666V63.1523C966.207 76.4268 974.36 85.4561 988.78 85.4561C1003.2 85.4561 1011.42 76.4268 1011.42 63.1523V1.7666H1028.74V64.7021C1028.74 85.9277 1013.44 100.617 988.78 100.617C964.186 100.617 948.822 85.9277 948.822 64.7021V1.7666H966.207ZM1085.71 99H1068.39V16.4561H1039.29V1.7666H1114.75V16.4561H1085.71V99ZM1142.69 99H1125.3V1.7666H1142.69V99ZM1201.28 0.149414C1229.58 0.149414 1247.37 19.4883 1247.37 50.417C1247.37 81.3457 1229.58 100.617 1201.28 100.617C1172.91 100.617 1155.12 81.3457 1155.12 50.417C1155.12 19.4883 1172.91 0.149414 1201.28 0.149414ZM1201.28 14.9736C1183.89 14.9736 1172.91 28.7197 1172.91 50.417C1172.91 72.0469 1183.89 85.793 1201.28 85.793C1218.59 85.793 1229.64 72.0469 1229.64 50.417C1229.64 28.7197 1218.59 14.9736 1201.28 14.9736ZM1276.65 99H1259.87V1.7666H1274.96L1323.21 69.8906H1323.81V1.7666H1340.52V99H1325.57L1277.25 30.8086H1276.65V99ZM1352.35 71.6426H1369.2C1370.27 80.6045 1379.24 86.4668 1391.1 86.4668C1402.82 86.4668 1410.97 80.6719 1410.97 72.5859C1410.97 65.5781 1405.99 61.5352 1393.72 58.6377L1381.12 55.6729C1363.2 51.5625 1354.71 42.9375 1354.71 29.0566C1354.71 11.8066 1369.74 0.149414 1390.89 0.149414C1412.32 0.149414 1426.47 11.7393 1426.88 28.8545H1410.3C1409.49 19.7578 1401.88 14.2998 1390.76 14.2998C1379.78 14.2998 1372.36 19.6904 1372.36 27.7764C1372.36 34.2451 1377.28 38.0186 1389.21 40.8486L1400.4 43.4092C1420.14 47.9238 1428.49 56.0771 1428.49 70.5645C1428.49 89.0273 1413.67 100.617 1390.15 100.617C1367.78 100.617 1353.09 89.5664 1352.35 71.6426Z" fill="#E9E9E9"/>
</svg>
